# xmcd CD database file
#
# Track frame offsets:
#	150
#	11738
#	23292
#	34188
#	47387
#	58521
#	70598
#	86174
#	99790
#	111660
#	122555
#	135187
#	148233
#	159352
#	171777
#	184426
#	195938
#	207238
#	217773
#	229212
#	241860
#	257018
#
# Disc length: 3607 seconds
#
# Revision: 0
# Processed by: cddbd v1.5.2PL0 Copyright (c) Steve Scherf et al.
# Submitted via: CDex 1.51
#
DISCID=1f0e1516
DTITLE=Sonny Boy Williamson - Nine Below Zero
DYEAR=2008
DGENRE=Blues
TTITLE0=Don't Start Me Talking
TTITLE1=Good Evening Everybody
TTITLE2=Gettin' Out Of Town
TTITLE3=Mighty Long Time
TTITLE4=Boppin' With Sonny
TTITLE5=Pontiac Blues
TTITLE6=Nine Below Zero
TTITLE7=Eyesight To The Blind
TTITLE8=Ninety Nine
TTITLE9=I Don't Know
TTITLE10=All My Love In Vain
TTITLE11=Stop Crying
TTITLE12=Do It If You Wanta
TTITLE13=Come On Back Home
TTITLE14=West Memphis Blues
TTITLE15=Too Close Together
TTITLE16=She Brought Life Back To The Dead
TTITLE17=Fattening Frogs For Snakes
TTITLE18=Born Blind
TTITLE19=Keep It To Yourself
TTITLE20=I Cross My Heart
TTITLE21=Crazy About You Baby
EXTD=YEAR: 2008
EXTT0=
EXTT1=
EXTT2=
EXTT3=
EXTT4=
EXTT5=
EXTT6=
EXTT7=
EXTT8=
EXTT9=
EXTT10=
EXTT11=
EXTT12=
EXTT13=
EXTT14=
EXTT15=
EXTT16=
EXTT17=
EXTT18=
EXTT19=
EXTT20=
EXTT21=
PLAYORDER=
